<?xml version="1.0" standalone="no"?>
<!DOCTYPE svg PUBLIC "-//W3C//DTD SVG 20010904//EN"
 "http://www.w3.org/TR/2001/REC-SVG-20010904/DTD/svg10.dtd">
<svg version="1.0" xmlns="http://www.w3.org/2000/svg"
 width="512.000000pt" height="512.000000pt" viewBox="0 0 512.000000 512.000000"
 preserveAspectRatio="xMidYMid meet">
<metadata>
Created by potrace 1.16, written by Peter Selinger 2001-2019
</metadata>
<g transform="translate(0.000000,512.000000) scale(0.100000,-0.100000)"
fill="#000000" stroke="none">
<path d="M1360 3803 c13 -10 43 -29 67 -43 23 -14 90 -58 149 -98 59 -40 109
-71 111 -69 2 3 -30 41 -72 85 -84 89 -146 126 -230 137 l-50 6 25 -18z"/>
<path d="M3340 3768 c-1 -57 -27 -199 -39 -211 -9 -9 -148 -12 -537 -12 l-524
0 0 -94 c0 -85 2 -93 18 -86 37 15 197 44 280 50 91 7 241 -6 330 -29 32 -9
52 -10 54 -4 2 6 93 13 218 18 118 4 227 13 242 19 15 5 34 20 42 33 41 62 10
260 -52 331 -22 25 -32 21 -32 -15z"/>
<path d="M2300 3133 l-105 -4 -3 -117 c-1 -64 -7 -272 -12 -462 -5 -190 -10
-393 -10 -452 l0 -108 78 0 c52 0 72 3 62 10 -21 13 -25 171 -11 497 14 322
22 383 63 428 35 40 66 52 178 64 204 23 363 -21 490 -136 l64 -58 -25 45
c-62 115 -224 237 -364 274 -65 18 -234 26 -405 19z"/>
<path d="M3515 2825 c4 -11 15 -53 26 -94 24 -92 26 -287 4 -389 -23 -112 -86
-261 -146 -349 -34 -48 -174 -193 -188 -193 -5 0 -11 -7 -15 -15 -3 -8 -10
-15 -16 -15 -6 0 -20 -9 -32 -20 -12 -10 -25 -17 -30 -14 -4 3 -8 1 -8 -4 0
-12 -96 -54 -196 -86 -278 -86 -572 -77 -802 24 l-44 20 -26 -33 c-50 -60
-135 -132 -199 -170 -60 -34 -143 -75 -163 -79 -8 -2 -17 -6 -20 -10 -3 -3
-14 -8 -25 -10 -11 -1 -23 -7 -26 -11 -3 -4 -19 -10 -35 -12 -16 -2 -29 -4
-29 -5 0 -1 -13 -4 -30 -6 -16 -3 -37 -7 -45 -11 -8 -3 -18 -6 -21 -5 -9 2
-181 -27 -185 -31 -2 -2 56 -34 129 -71 l133 -68 69 7 c80 9 96 15 269 102
120 60 190 104 260 166 55 48 96 50 262 16 128 -26 171 -31 299 -31 301 0 479
58 654 213 164 144 247 262 308 436 25 72 27 91 27 233 1 182 -18 274 -84 405
-41 80 -89 152 -75 110z"/>
</g>
</svg>