<?xml version="1.0" standalone="no"?>
<!DOCTYPE svg PUBLIC "-//W3C//DTD SVG 20010904//EN"
 "http://www.w3.org/TR/2001/REC-SVG-20010904/DTD/svg10.dtd">
<svg version="1.0" xmlns="http://www.w3.org/2000/svg"
 width="512.000000pt" height="512.000000pt" viewBox="0 0 512.000000 512.000000"
 preserveAspectRatio="xMidYMid meet">
<metadata>
Created by potrace 1.16, written by Peter Selinger 2001-2019
</metadata>
<g transform="translate(0.000000,512.000000) scale(0.100000,-0.100000)"
fill="#000000" stroke="none">
<path d="M344 5093 c21 -40 108 -148 201 -250 44 -48 101 -117 127 -153 72
-102 190 -310 209 -370 12 -36 18 -46 18 -30 1 37 -137 322 -220 456 -47 74
-108 154 -165 215 -50 53 -97 111 -105 128 -11 26 -20 31 -47 31 -32 0 -32 0
-18 -27z"/>
<path d="M420 5112 c0 -18 61 -99 111 -147 l51 -50 -68 103 c-37 56 -74 102
-81 102 -7 0 -13 -4 -13 -8z"/>
<path d="M651 5115 c1 -19 18 -51 18 -35 0 8 -4 22 -9 30 -5 8 -9 11 -9 5z"/>
<path d="M760 5108 c0 -31 23 -151 46 -243 23 -90 23 -101 9 -111 -15 -11 -13
-50 4 -79 3 -5 6 -14 7 -20 1 -5 5 -27 8 -48 11 -70 28 -127 38 -127 5 0 7 -4
3 -9 -3 -5 4 -33 15 -61 11 -28 21 -61 21 -73 1 -17 2 -18 6 -4 2 9 0 32 -7
51 -36 111 -29 342 19 526 16 63 31 136 34 163 4 46 4 47 -24 47 -29 0 -29 -1
-29 -56 0 -31 -12 -113 -26 -183 -22 -108 -25 -143 -21 -249 3 -68 3 -122 1
-120 -5 6 -21 161 -41 396 -17 209 -18 212 -40 212 -13 0 -23 -6 -23 -12z"/>
<path d="M980 5087 c0 -18 -13 -87 -30 -153 -16 -65 -30 -123 -30 -129 1 -23
89 226 95 268 7 43 6 47 -14 47 -17 0 -21 -6 -21 -33z"/>
<path d="M1033 5085 c0 -22 2 -30 4 -17 2 12 2 30 0 40 -3 9 -5 -1 -4 -23z"/>
<path d="M1106 5074 c-9 -66 -36 -120 -93 -189 -59 -71 -78 -106 -86 -160 l-6
-40 14 35 c18 46 18 40 0 -53 -17 -88 -20 -193 -6 -202 5 -3 12 21 16 52 10
91 34 185 58 225 12 19 45 64 72 98 51 64 71 100 55 100 -5 0 -3 15 5 34 8 19
18 59 23 90 l9 56 -27 0 c-25 0 -28 -4 -34 -46z m-133 -279 c-3 -9 -8 -14 -10
-11 -3 3 -2 9 2 15 9 16 15 13 8 -4z m47 11 c0 -2 -8 -10 -17 -17 -16 -13 -17
-12 -4 4 13 16 21 21 21 13z"/>
<path d="M1716 5059 c-42 -153 -108 -233 -381 -468 -267 -229 -287 -254 -305
-378 -13 -90 -13 -116 1 -107 6 3 15 0 20 -7 6 -9 9 6 9 41 0 121 23 155 205
299 66 52 147 122 180 155 33 34 52 51 42 39 -32 -37 1 -39 40 -2 96 91 193
291 218 447 10 63 -9 51 -29 -19z"/>
<path d="M2094 5098 c4 -13 10 -66 13 -118 6 -89 7 -92 15 -50 13 67 0 190
-19 190 -11 0 -14 -6 -9 -22z"/>
<path d="M2341 5104 c0 -11 3 -14 6 -6 3 7 2 16 -1 19 -3 4 -6 -2 -5 -13z"/>
<path d="M2377 5055 c3 -38 7 -82 7 -97 1 -14 4 -24 8 -21 5 2 7 37 5 76 -1
40 2 80 7 90 5 11 4 17 -3 17 -6 0 -11 -8 -12 -17 0 -16 -2 -15 -10 2 -6 13
-7 -3 -2 -50z"/>
<path d="M2626 5073 c-23 -162 -90 -312 -215 -481 -79 -107 -92 -139 -52 -124
19 7 101 94 101 107 0 4 11 16 25 26 13 11 22 26 19 33 -3 8 5 31 18 53 56 89
107 217 122 303 16 97 17 130 3 130 -10 0 -17 -16 -21 -47z"/>
<path d="M3433 5093 c-9 -16 -26 -36 -37 -46 -12 -10 -14 -16 -6 -12 8 4 4 -3
-9 -14 -13 -12 -19 -21 -15 -21 5 -1 -2 -10 -15 -20 -13 -11 -19 -20 -15 -20
5 0 2 -6 -6 -13 -8 -7 -60 -73 -116 -147 -108 -146 -164 -199 -344 -332 -213
-157 -275 -247 -379 -553 -39 -115 -54 -179 -66 -275 -9 -69 -23 -174 -31
-234 -15 -105 -15 -111 3 -123 16 -12 19 -11 25 9 3 13 6 35 7 50 1 15 8 48
16 72 9 25 18 80 20 123 13 207 138 525 258 653 23 25 92 85 152 134 190 155
337 312 446 476 98 147 179 287 179 308 0 24 -49 12 -67 -15z"/>
<path d="M3936 5077 c-52 -88 -213 -437 -202 -437 2 0 20 27 40 60 20 32 59
85 86 117 27 31 47 60 44 65 -2 4 5 12 16 18 11 6 18 15 15 21 -4 5 14 48 39
94 25 47 46 89 46 95 0 5 -13 10 -30 10 -24 0 -34 -8 -54 -43z"/>
<path d="M4050 5105 c-7 -9 -10 -18 -7 -21 3 -3 10 4 17 15 13 25 8 27 -10 6z"/>
<path d="M4260 5038 c-79 -201 -169 -341 -333 -518 -104 -112 -292 -332 -449
-525 l-40 -50 43 45 c24 25 96 109 158 185 170 207 276 321 355 379 39 29 87
71 108 93 78 88 204 332 223 436 6 33 5 37 -13 37 -15 0 -26 -18 -52 -82z"/>
<path d="M3561 5094 c0 -11 3 -14 6 -6 3 7 2 16 -1 19 -3 4 -6 -2 -5 -13z"/>
<path d="M2401 5044 c0 -11 3 -14 6 -6 3 7 2 16 -1 19 -3 4 -6 -2 -5 -13z"/>
<path d="M5014 4972 c-55 -37 -149 -97 -209 -132 l-108 -65 39 -11 c35 -10 37
-12 14 -16 -23 -5 -22 -5 5 -6 23 -1 69 25 190 108 88 60 164 111 168 112 5 2
7 20 5 41 l-3 37 -101 -68z"/>
<path d="M1001 4959 c-6 -18 -9 -34 -7 -36 2 -2 9 10 15 28 6 18 9 34 7 36 -2
2 -9 -10 -15 -28z"/>
<path d="M1 4964 c0 -11 3 -14 6 -6 3 7 2 16 -1 19 -3 4 -6 -2 -5 -13z"/>
<path d="M4944 4807 c-88 -62 -196 -139 -240 -173 -89 -68 -438 -313 -649
-455 -157 -106 -487 -313 -700 -439 -324 -192 -397 -251 -572 -459 -133 -159
-164 -205 -251 -371 -169 -323 -243 -586 -228 -812 7 -110 41 -268 81 -373 36
-98 179 -344 192 -331 2 2 -17 39 -43 82 -26 44 -58 103 -71 132 -36 77 -74
219 -77 282 -1 30 -3 89 -6 130 l-4 75 -6 -70 -6 -70 -2 63 c-1 34 -6 62 -12
62 -5 0 -10 5 -10 11 0 5 4 8 8 5 4 -2 6 11 4 30 -2 19 -8 37 -13 40 -5 3 -9
13 -8 22 0 14 2 13 9 -3 7 -16 9 -11 9 21 1 38 25 127 41 149 4 6 13 34 20 63
10 43 16 52 29 47 12 -5 13 -3 5 5 -15 15 -2 77 30 145 27 57 66 106 67 84 1
-25 19 32 39 123 23 104 81 234 146 325 71 100 285 309 414 405 183 136 443
300 426 267 -4 -7 2 -3 13 11 11 14 21 21 21 17 0 -4 57 31 128 77 153 103
107 60 -68 -64 -69 -48 -169 -124 -223 -169 -54 -45 -103 -81 -110 -81 -13 0
-17 -4 110 98 128 103 143 124 32 48 -138 -97 -309 -225 -309 -233 0 -4 5 -2
12 5 7 7 32 12 57 12 l44 0 -24 -27 c-13 -15 14 7 61 48 136 121 276 226 293
221 4 -1 7 2 7 7 0 13 56 52 78 55 9 2 17 9 17 17 0 8 5 14 10 14 6 0 17 4 25
9 33 20 -55 -65 -255 -248 -242 -220 -319 -286 -334 -286 -11 0 -124 -133
-194 -228 -25 -35 -77 -125 -115 -200 -38 -75 -82 -162 -97 -192 -16 -30 -29
-58 -30 -62 0 -4 -9 -14 -20 -23 -11 -9 -14 -13 -7 -10 11 6 12 3 3 -14 -7
-11 -14 -21 -17 -21 -3 0 -2 6 2 13 4 7 3 8 -2 4 -5 -5 -9 -16 -9 -25 0 -9 -5
-17 -12 -17 -6 0 -15 -4 -20 -9 -5 -5 -2 -6 6 -1 9 5 12 3 9 -6 -3 -8 -10 -14
-16 -14 -5 0 -14 -4 -19 -9 -5 -5 -2 -6 6 -1 9 5 12 3 9 -6 -3 -8 -10 -13 -16
-12 -6 2 -9 -3 -6 -10 2 -7 -3 -21 -11 -32 -15 -19 -16 -19 -5 5 10 23 10 24
-4 6 -27 -34 -105 -230 -127 -322 -17 -65 -23 -122 -24 -214 0 -69 2 -129 6
-135 4 -5 12 -37 19 -70 7 -33 29 -97 50 -142 37 -79 127 -219 156 -244 8 -6
-4 15 -26 48 -47 71 -81 157 -105 268 -9 44 -20 87 -25 95 -4 8 -5 53 -3 100
2 47 3 101 3 121 -1 93 169 478 278 629 31 43 102 141 157 217 135 187 296
347 429 428 131 80 165 105 143 106 -9 1 -23 2 -29 3 -23 3 -125 -41 -181 -78
-115 -76 -310 -305 -433 -508 -20 -33 -38 -57 -41 -55 -10 11 114 227 204 356
70 101 126 161 237 255 57 48 109 98 116 111 7 14 16 22 20 20 4 -3 13 1 19 9
6 7 29 21 51 31 22 10 38 20 36 23 -3 2 -48 -16 -100 -41 -83 -40 -94 -43 -81
-23 23 35 261 244 278 244 5 0 12 4 15 8 4 4 1 4 -7 -1 -9 -5 -12 -4 -7 3 4 6
13 9 20 6 15 -6 119 54 256 147 370 252 389 266 480 353 36 35 136 114 224
177 87 63 175 126 195 141 89 67 186 128 189 118 2 -5 9 -7 15 -3 18 11 -74
-102 -165 -204 -96 -107 -215 -216 -343 -316 -49 -38 -89 -73 -88 -77 1 -5
-28 -34 -65 -65 -86 -73 -274 -257 -366 -360 -84 -93 -125 -150 -236 -335
-103 -170 -171 -253 -267 -327 -161 -124 -180 -142 -243 -224 -71 -93 -236
-283 -295 -339 -70 -66 -196 -243 -183 -256 2 -2 35 40 73 94 40 56 111 137
169 192 55 52 154 147 221 210 66 64 158 144 205 179 103 77 180 149 229 216
65 86 186 286 228 376 69 147 125 219 298 380 153 143 278 248 428 361 207
157 281 231 394 398 51 74 101 146 112 160 17 20 21 40 21 108 0 45 -3 82 -7
82 -5 -1 -80 -51 -169 -113z m76 -112 c-7 -8 -17 -15 -23 -15 -6 0 -2 7 9 15
25 19 30 19 14 0z m-1100 -648 c0 -2 -19 -21 -42 -42 -24 -22 -33 -28 -20 -14
12 14 19 29 15 34 -5 4 -3 5 3 2 7 -4 17 0 24 8 12 14 20 19 20 12z m-530
-581 c0 -2 -42 -33 -92 -70 -181 -128 -271 -238 -423 -516 -37 -69 -107 -189
-156 -266 -122 -197 -195 -346 -214 -432 -4 -18 -9 -31 -11 -29 -8 8 18 98 48
169 29 69 42 94 143 258 32 52 103 181 157 285 55 105 106 196 115 203 9 6 13
12 9 12 -16 0 101 154 159 209 34 32 107 86 161 119 99 62 104 65 104 58z
m-903 -1358 c-3 -8 -6 -5 -6 6 -1 11 2 17 5 13 3 -3 4 -12 1 -19z m-110 -200
c-3 -7 -5 -2 -5 12 0 14 2 19 5 13 2 -7 2 -19 0 -25z"/>
<path d="M26 4890 c3 -14 11 -32 16 -40 6 -10 7 -7 2 10 -3 14 -11 32 -16 40
-6 10 -7 7 -2 -10z"/>
<path d="M3882 4802 c-22 -22 -54 -61 -72 -88 -19 -27 -57 -78 -86 -114 -28
-36 -73 -103 -99 -150 -116 -207 -230 -336 -454 -515 -69 -54 -160 -135 -203
-179 -126 -128 -225 -291 -243 -401 -3 -22 -8 -56 -11 -75 l-6 -35 40 45 c76
87 145 175 118 150 -24 -21 -26 -22 -20 -5 27 73 124 186 249 289 39 32 82 70
96 85 14 14 66 62 115 106 192 171 266 269 392 520 39 77 94 178 122 225 94
152 110 180 105 180 -3 0 -22 -17 -43 -38z"/>
<path d="M1416 4724 c-82 -56 -109 -67 -85 -36 7 9 1 6 -14 -7 -15 -14 -25
-27 -22 -30 7 -6 -66 -81 -79 -81 -5 0 -1 10 10 23 17 20 16 20 -9 -2 -15 -14
-25 -27 -22 -29 7 -7 -36 -52 -48 -52 -6 0 -2 10 9 23 10 12 -1 4 -24 -18 -46
-43 -58 -63 -14 -24 l27 24 -24 -27 c-13 -15 -27 -25 -31 -23 -8 5 -90 -51
-90 -61 0 -3 6 -2 13 1 6 4 2 -2 -10 -12 -27 -23 -33 -46 -37 -155 -3 -92 0
-102 15 -46 7 27 7 23 3 -17 -3 -27 -6 -63 -8 -80 -2 -16 -1 -22 1 -12 2 9 11
17 19 17 11 0 14 15 14 63 0 79 21 152 60 205 16 23 120 123 230 223 175 159
209 191 198 188 -2 0 -39 -25 -82 -55z m-419 -436 c-3 -8 -6 -5 -6 6 -1 11 2
17 5 13 3 -3 4 -12 1 -19z"/>
<path d="M911 4644 c0 -11 3 -14 6 -6 3 7 2 16 -1 19 -3 4 -6 -2 -5 -13z"/>
<path d="M4949 4633 l-24 -28 28 24 c25 23 32 31 24 31 -2 0 -14 -12 -28 -27z"/>
<path d="M0 4596 l0 -44 73 -37 c80 -42 263 -161 274 -178 4 -6 -7 -2 -23 10
-30 21 -310 173 -319 173 -3 0 -5 -13 -5 -30 0 -16 4 -30 8 -30 15 0 103 -94
98 -106 -2 -6 13 -16 37 -24 95 -27 259 -140 357 -246 25 -27 34 -40 21 -29
l-24 20 7 -23 c4 -12 38 -69 75 -125 79 -119 101 -161 167 -317 54 -129 83
-190 84 -175 0 20 -51 193 -80 270 -82 212 -336 631 -370 610 -5 -3 -12 0 -16
6 -4 8 -3 9 4 5 30 -18 7 15 -45 65 -51 49 -307 249 -319 249 -2 0 -4 -20 -4
-44z"/>
<path d="M1169 4623 c-13 -16 -12 -17 4 -4 9 7 17 15 17 17 0 8 -8 3 -21 -13z"/>
<path d="M1119 4583 c-13 -16 -12 -17 4 -4 9 7 17 15 17 17 0 8 -8 3 -21 -13z"/>
<path d="M5036 4476 c-41 -52 -92 -111 -113 -132 l-38 -37 56 39 c185 130 179
124 179 177 0 26 -2 47 -4 47 -2 0 -38 -42 -80 -94z"/>
<path d="M1035 4508 l-50 -53 53 50 c48 46 57 55 49 55 -1 0 -25 -24 -52 -52z"/>
<path d="M1254 4418 c-136 -107 -172 -155 -181 -240 -7 -70 8 -82 40 -31 14
21 35 47 47 58 12 11 41 45 63 75 22 30 49 62 60 71 11 9 22 25 23 34 1 10 15
32 31 49 62 67 67 76 50 76 -8 0 -68 -42 -133 -92z"/>
<path d="M921 4424 c0 -11 3 -14 6 -6 3 7 2 16 -1 19 -3 4 -6 -2 -5 -13z"/>
<path d="M4999 4352 c-174 -126 -379 -313 -379 -343 0 -7 37 24 83 67 93 89
250 217 350 284 57 39 84 71 60 70 -5 0 -56 -35 -114 -78z"/>
<path d="M513 4326 c14 -19 7 -29 -10 -15 -10 7 -7 1 6 -13 13 -15 28 -25 34
-21 5 3 7 0 5 -8 -3 -8 21 -45 52 -84 219 -271 276 -372 344 -615 66 -235 79
-280 83 -277 2 2 -8 67 -22 143 -39 208 -91 350 -181 492 -19 28 -32 52 -29
52 12 0 70 -73 101 -126 46 -82 108 -250 129 -349 20 -94 24 -109 30 -103 8 8
-15 180 -37 267 -11 47 -32 110 -45 138 -27 58 -113 158 -143 168 -11 3 -57
54 -102 113 -45 59 -114 139 -153 178 -38 38 -67 66 -62 60z m67 -91 c13 -14
21 -25 18 -25 -2 0 -15 11 -28 25 -13 14 -21 25 -18 25 2 0 15 -11 28 -25z
m54 -64 c-2 -3 -12 3 -22 13 -16 17 -16 18 5 5 12 -7 20 -15 17 -18z m71 -81
c10 -11 16 -20 13 -20 -3 0 -13 9 -23 20 -10 11 -16 20 -13 20 3 0 13 -9 23
-20z"/>
<path d="M3932 4200 c-79 -48 -149 -93 -155 -100 -7 -7 53 27 133 75 164 99
189 115 175 114 -6 -1 -74 -40 -153 -89z"/>
<path d="M5085 4265 c-216 -159 -285 -214 -373 -300 -58 -55 -106 -99 -109
-97 -3 3 -105 -79 -323 -259 -150 -124 -282 -265 -384 -409 -176 -247 -303
-380 -461 -477 -119 -74 -176 -117 -260 -198 -72 -70 -62 -63 90 54 50 38 148
102 218 142 71 41 175 108 230 150 93 70 109 87 186 200 103 152 169 234 258
320 96 94 242 217 275 231 17 8 30 23 34 41 11 50 144 234 144 200 0 -6 -6
-16 -14 -22 -21 -18 -93 -130 -112 -176 l-16 -40 23 20 c13 11 53 48 89 81
142 134 464 374 532 396 5 2 8 40 6 84 l-3 82 -30 -23z"/>
<path d="M901 4205 c-2 -66 30 -207 74 -330 70 -194 86 -282 91 -474 2 -91 7
-167 10 -170 13 -12 -5 355 -21 432 -9 43 -39 142 -66 220 -28 78 -59 189 -69
247 -10 58 -19 92 -19 75z"/>
<path d="M2050 4200 c-9 -6 -10 -10 -3 -10 6 0 15 5 18 10 8 12 4 12 -15 0z"/>
<path d="M1920 4123 c-67 -42 -345 -160 -395 -168 -37 -6 -112 -55 -166 -108
-29 -28 -57 -51 -62 -49 -5 1 -5 -2 -2 -8 4 -6 -1 -20 -11 -31 -9 -10 -13 -19
-8 -19 5 0 3 -4 -5 -9 -21 -14 -36 -195 -25 -306 l8 -90 6 105 c12 202 76 331
210 426 72 50 189 106 175 84 -8 -13 213 96 230 114 7 6 42 31 79 55 36 24 66
45 66 47 0 12 -34 -2 -100 -43z"/>
<path d="M440 4116 c0 -2 8 -10 18 -17 15 -13 16 -12 3 4 -13 16 -21 21 -21
13z"/>
<path d="M4517 4016 c-81 -56 -153 -108 -160 -115 -28 -30 117 53 189 107 67
51 138 114 123 111 -2 0 -70 -47 -152 -103z"/>
<path d="M0 3986 l0 -86 38 -32 c94 -83 254 -250 307 -322 62 -84 168 -296
160 -318 -3 -8 23 -37 66 -73 114 -96 145 -153 235 -423 80 -242 200 -394 498
-631 189 -150 272 -228 419 -396 73 -82 179 -197 238 -255 58 -58 120 -126
138 -150 18 -25 38 -45 44 -46 7 0 17 -2 23 -2 15 -3 123 -143 162 -212 18
-30 32 -50 32 -44 0 5 -24 51 -54 102 -66 111 -219 303 -382 477 -66 72 -159
180 -206 240 -124 160 -212 245 -403 390 -93 71 -218 177 -276 235 -94 93
-111 116 -152 200 -25 52 -60 144 -77 205 -44 156 -95 257 -168 337 -69 76
-86 105 -132 233 -62 171 -135 291 -261 431 -64 71 -170 169 -221 206 l-28 19
0 -85z"/>
<path d="M1329 3903 l-34 -38 38 34 c20 19 37 36 37 38 0 8 -8 0 -41 -34z"/>
<path d="M331 3903 c7 -12 15 -20 18 -17 3 2 -3 12 -13 22 -17 16 -18 16 -5
-5z"/>
<path d="M5010 3853 c-52 -36 -84 -63 -70 -59 46 14 175 93 178 110 5 24 -5
20 -108 -51z"/>
<path d="M3664 3826 c-10 -8 -16 -17 -13 -20 3 -3 14 3 24 14 21 23 17 26 -11
6z"/>
<path d="M5095 3800 c-50 -56 -251 -187 -407 -266 -195 -99 -226 -127 -259
-237 -25 -85 -64 -130 -181 -209 -49 -32 -145 -103 -215 -157 -71 -54 -234
-177 -364 -272 -288 -212 -415 -316 -515 -422 -134 -143 -219 -279 -266 -427
-19 -61 -23 -95 -21 -180 0 -58 6 -118 12 -135 9 -26 10 -23 6 25 l-5 55 18
-70 c10 -38 28 -90 40 -115 12 -25 19 -36 16 -25 -16 52 -20 89 -19 205 1 108
5 136 28 206 74 222 315 481 713 768 67 49 273 202 464 345 259 194 271 207
345 349 44 85 106 142 205 192 52 26 178 101 270 160 8 5 46 29 83 52 38 23
71 47 74 53 2 7 3 38 1 70 l-3 57 -20 -22z"/>
<path d="M3620 3791 c-6 -12 -15 -19 -19 -16 -5 2 -16 -7 -25 -20 -9 -14 -21
-23 -26 -20 -5 3 -18 -8 -30 -25 -12 -17 -25 -28 -30 -25 -5 3 -82 -67 -172
-156 -90 -89 -147 -149 -128 -134 38 30 285 252 362 326 26 25 49 44 51 42 2
-2 12 6 22 17 10 11 16 23 12 26 -3 3 -10 -4 -17 -15z"/>
<path d="M1609 3726 c-72 -67 -159 -208 -174 -281 -3 -16 12 6 33 50 21 44 60
107 86 140 95 123 103 135 55 91z"/>
<path d="M4250 3735 c-14 -8 -42 -19 -62 -25 -77 -22 -207 -142 -261 -242
l-18 -33 23 30 c55 73 162 166 252 219 53 31 96 59 96 61 0 7 -2 6 -30 -10z"/>
<path d="M3099 3703 l-34 -38 38 34 c34 33 42 41 34 41 -2 0 -19 -17 -38 -37z"/>
<path d="M4895 3728 c-125 -20 -165 -37 -221 -90 -30 -28 -53 -53 -51 -54 4
-4 91 28 177 66 70 31 181 90 165 88 -5 0 -37 -5 -70 -10z"/>
<path d="M1203 3675 c-21 -76 -24 -132 -13 -263 16 -197 53 -324 140 -477 53
-92 137 -202 170 -224 13 -9 -6 20 -44 64 -92 108 -154 238 -201 418 -41 162
-54 284 -43 404 10 101 6 135 -9 78z"/>
<path d="M0 3641 c0 -11 15 -21 95 -66 64 -35 38 -8 -37 39 -32 20 -58 32 -58
27z"/>
<path d="M0 3586 c0 -11 38 -44 44 -38 3 3 6 1 6 -5 0 -5 21 -25 48 -43 26
-19 53 -41 60 -50 11 -12 12 -13 6 0 -10 18 98 -66 109 -85 4 -8 4 -16 0 -18
-7 -4 -148 69 -235 122 l-38 23 0 -36 c0 -20 4 -36 8 -36 5 0 37 -18 71 -40
39 -25 73 -40 94 -40 63 0 128 -42 209 -133 91 -102 164 -207 236 -342 29 -55
50 -89 46 -75 -16 62 -113 226 -203 348 -55 72 -97 132 -94 132 3 0 0 7 -7 15
-7 8 -16 13 -20 10 -4 -2 -15 4 -25 15 -10 11 -14 20 -10 20 4 0 1 8 -8 18
-10 10 -15 21 -12 24 8 8 -88 104 -130 130 -83 51 -155 89 -155 84z"/>
<path d="M1092 3540 c0 -14 2 -19 5 -12 2 6 2 18 0 25 -3 6 -5 1 -5 -13z"/>
<path d="M1123 3475 c0 -44 2 -61 4 -37 2 23 2 59 0 80 -2 20 -4 1 -4 -43z"/>
<path d="M1291 3448 c-8 -63 -9 -94 -1 -102 7 -7 10 -3 8 14 -1 14 2 60 6 103
4 42 6 77 4 77 -3 0 -10 -41 -17 -92z"/>
<path d="M3124 3498 l-19 -23 23 19 c12 11 22 21 22 23 0 8 -8 2 -26 -19z"/>
<path d="M3010 3395 c-41 -41 -72 -75 -69 -75 2 0 38 34 79 75 41 41 72 75 69
75 -2 0 -38 -34 -79 -75z"/>
<path d="M5012 3401 c-142 -77 -200 -131 -268 -249 -131 -226 -178 -281 -270
-313 -27 -10 -40 -18 -29 -18 12 -1 39 -10 60 -21 24 -12 41 -16 43 -10 2 6 8
8 13 4 5 -3 9 0 9 6 0 6 22 39 48 73 50 65 88 124 140 217 17 30 56 81 87 114
45 47 61 57 80 54 18 -4 29 1 41 21 10 14 49 59 87 98 39 40 68 74 66 76 -2 2
-50 -22 -107 -52z"/>
<path d="M1103 3365 c0 -38 2 -53 4 -32 2 20 2 52 0 70 -2 17 -4 1 -4 -38z"/>
<path d="M5069 3373 c-81 -83 -137 -168 -186 -276 -11 -25 -10 -26 5 -18 9 5
36 29 58 53 23 24 72 71 108 104 l67 61 -3 62 -3 62 -46 -48z"/>
<path d="M841 3364 c0 -11 3 -14 6 -6 3 7 2 16 -1 19 -3 4 -6 -2 -5 -13z"/>
<path d="M1051 3364 c0 -11 3 -14 6 -6 3 7 2 16 -1 19 -3 4 -6 -2 -5 -13z"/>
<path d="M0 3297 l0 -73 72 -51 c40 -28 84 -61 98 -73 219 -191 267 -244 349
-385 59 -102 65 -115 145 -312 104 -257 195 -404 344 -557 97 -100 205 -164
589 -353 324 -159 333 -163 333 -158 0 8 -143 106 -230 157 -47 28 -182 105
-300 171 -327 182 -364 210 -478 369 -89 123 -141 227 -216 433 -86 231 -175
413 -230 467 -22 23 -35 38 -28 34 20 -12 14 3 -19 44 -62 77 -393 360 -421
360 -5 0 -8 -33 -8 -73z"/>
<path d="M1293 3262 c4 -65 11 -86 68 -202 34 -72 72 -138 83 -148 14 -12 10
0 -13 38 -65 111 -102 201 -117 288 -9 48 -17 89 -20 91 -2 3 -3 -28 -1 -67z"/>
<path d="M4377 3270 c-23 -49 -39 -68 -95 -107 -37 -26 -76 -56 -87 -67 -20
-19 -20 -20 10 -1 130 80 164 114 195 193 22 56 6 43 -23 -18z"/>
<path d="M1261 3304 c0 -11 3 -14 6 -6 3 7 2 16 -1 19 -3 4 -6 -2 -5 -13z"/>
<path d="M5075 3019 c-22 -23 -87 -73 -145 -111 -58 -39 -107 -72 -110 -75
-16 -17 101 50 193 110 85 56 107 76 107 94 0 13 -1 23 -3 23 -2 0 -21 -19
-42 -41z"/>
<path d="M7 2979 c7 -7 15 -10 18 -7 3 3 -2 9 -12 12 -14 6 -15 5 -6 -5z"/>
<path d="M5075 2947 c-27 -22 -359 -229 -514 -322 -167 -100 -353 -260 -452
-391 -110 -143 -220 -356 -265 -514 -52 -183 -43 -408 22 -545 l24 -50 -6 65
c-25 244 -20 329 26 490 46 162 128 332 216 448 56 75 206 227 272 276 76 58
221 154 293 194 30 17 104 58 164 93 61 34 145 81 187 103 l78 41 0 68 c0 37
-3 67 -7 67 -5 0 -21 -11 -38 -23z"/>
<path d="M960 2945 c0 -5 5 -17 10 -25 5 -8 10 -10 10 -5 0 6 -5 17 -10 25 -5
8 -10 11 -10 5z"/>
<path d="M0 2861 l0 -41 68 0 c37 0 84 -4 105 -9 42 -10 46 -3 15 26 -36 32
-85 54 -139 60 l-49 6 0 -42z"/>
<path d="M180 2896 c0 -4 15 -26 34 -49 73 -91 110 -183 141 -347 33 -170 51
-213 173 -395 157 -233 289 -394 313 -379 9 5 10 2 6 -9 -3 -9 -3 -16 1 -16 4
1 10 0 15 -1 4 -1 10 -3 15 -4 4 -1 59 -54 122 -117 81 -82 149 -139 230 -192
63 -43 121 -77 128 -77 27 0 257 -124 355 -192 15 -10 32 -16 37 -13 6 4 9 3
8 -2 -2 -4 47 -58 107 -118 131 -132 218 -251 291 -400 46 -94 61 -139 99
-305 68 -294 63 -280 96 -280 16 0 29 3 29 6 0 4 -14 102 -31 218 -51 349 -91
466 -210 626 -105 141 -273 280 -341 285 -34 2 -188 70 -223 99 -19 15 -19 16
8 6 62 -22 34 -6 -140 84 -359 184 -425 242 -778 686 -55 69 -127 157 -161
196 -80 92 -88 109 -124 261 -43 181 -76 275 -120 341 -38 56 -80 103 -80 88z"/>
<path d="M990 2878 c0 -4 16 -41 35 -83 40 -88 123 -194 232 -295 85 -78 277
-224 369 -280 32 -19 97 -72 145 -117 47 -46 89 -83 93 -83 4 0 -16 27 -45 61
-58 66 -134 126 -302 238 -173 116 -288 218 -414 365 -17 21 -32 39 -32 42 -2
10 -80 158 -81 152z"/>
<path d="M1490 2846 c0 -2 8 -10 18 -17 15 -13 16 -12 3 4 -13 16 -21 21 -21
13z"/>
<path d="M4300 2676 c-256 -113 -599 -350 -682 -469 -11 -18 -15 -26 -8 -19 8
6 18 12 23 12 4 0 5 -6 1 -12 -4 -7 17 14 47 46 118 129 320 269 604 418 123
64 129 74 15 24z"/>
<path d="M5060 2669 c-121 -90 -233 -158 -400 -244 -160 -82 -182 -97 -256
-170 -48 -48 -98 -110 -124 -155 -24 -41 -69 -109 -101 -150 -96 -126 -135
-287 -127 -531 4 -113 10 -157 26 -204 12 -33 19 -47 16 -32 -11 64 -4 324 12
407 19 101 86 247 138 305 20 22 44 54 53 70 25 46 56 85 67 85 6 0 31 34 56
76 59 100 170 205 278 262 45 24 82 41 82 39 0 -3 -37 -27 -82 -53 -87 -50
-217 -171 -252 -234 l-20 -35 40 29 c21 16 58 46 80 67 53 47 122 91 133 84 5
-2 14 2 21 10 7 8 17 12 23 8 5 -3 7 -2 4 4 -3 5 13 25 36 45 108 90 218 175
285 220 71 48 72 49 72 93 0 25 -1 45 -2 45 -2 0 -28 -19 -58 -41z"/>
<path d="M1230 2676 c0 -2 8 -10 18 -17 15 -13 16 -12 3 4 -13 16 -21 21 -21
13z"/>
<path d="M360 2644 c0 -6 7 -19 16 -30 14 -18 14 -18 3 6 -14 31 -19 36 -19
24z"/>
<path d="M1290 2607 c0 -2 15 -16 33 -33 l32 -29 -29 33 c-28 30 -36 37 -36
29z"/>
<path d="M0 2535 c0 -43 5 -53 53 -109 62 -71 130 -160 149 -196 7 -14 52 -77
99 -140 123 -166 182 -255 221 -338 19 -39 33 -72 32 -72 -2 0 -18 21 -36 48
-18 26 -89 109 -158 186 -69 76 -125 141 -125 145 0 6 -26 35 -115 127 -101
105 -126 120 -39 24 47 -52 138 -159 203 -237 64 -78 124 -144 132 -147 8 -3
13 -10 10 -15 -3 -4 3 -16 14 -26 11 -10 20 -14 20 -10 0 5 13 -11 29 -36 16
-24 47 -63 69 -87 23 -24 41 -46 41 -50 0 -4 10 -13 23 -21 l23 -13 -24 21
c-13 11 -20 21 -16 21 3 0 -3 13 -14 29 -36 50 -23 48 25 -4 47 -51 46 -48
-23 65 -21 36 -68 119 -103 185 -85 161 -143 263 -209 365 -30 47 -54 89 -53
93 1 4 -5 10 -13 13 -8 4 -15 12 -15 20 0 7 -9 18 -20 24 -11 6 -19 14 -17 18
2 7 -77 90 -135 141 l-28 24 0 -48z m451 -742 c13 -16 12 -17 -3 -4 -10 7 -18
15 -18 17 0 8 8 3 21 -13z"/>
<path d="M130 2566 c0 -2 8 -10 18 -17 15 -13 16 -12 3 4 -13 16 -21 21 -21
13z"/>
<path d="M4934 2454 c-208 -143 -230 -163 -94 -86 58 33 144 81 193 106 73 40
87 51 87 72 0 13 -4 24 -9 24 -4 0 -84 -52 -177 -116z"/>
<path d="M3018 2462 c-54 -48 -105 -98 -114 -112 -19 -28 -24 -32 116 95 57
51 108 105 98 105 -2 0 -47 -40 -100 -88z"/>
<path d="M1390 2516 c0 -2 8 -10 18 -17 15 -13 16 -12 3 4 -13 16 -21 21 -21
13z"/>
<path d="M190 2496 c0 -2 8 -10 18 -17 15 -13 16 -12 3 4 -13 16 -21 21 -21
13z"/>
<path d="M4165 2417 c-127 -86 -247 -199 -334 -314 -67 -88 -145 -246 -172
-348 -30 -115 -36 -270 -15 -375 35 -171 82 -255 244 -437 119 -133 207 -239
257 -311 17 -23 36 -40 43 -37 7 3 10 0 7 -5 -3 -5 1 -20 9 -32 8 -13 27 -54
41 -91 15 -37 29 -66 31 -64 2 2 -9 36 -25 74 -16 39 -32 86 -36 104 -10 50
-82 199 -95 199 -6 0 -8 4 -5 10 3 5 2 10 -4 10 -5 0 -29 25 -52 55 -65 82
-59 57 8 -37 66 -92 128 -197 120 -204 -2 -3 -28 32 -58 78 -70 110 -198 285
-272 373 -65 77 -128 196 -152 290 -18 71 -21 227 -5 316 21 122 80 269 155
390 67 106 262 314 289 307 6 -2 43 27 81 64 39 37 68 67 65 67 -3 0 -59 -37
-125 -82z"/>
<path d="M1440 2476 c0 -2 8 -10 18 -17 15 -13 16 -12 3 4 -13 16 -21 21 -21
13z"/>
<path d="M3082 2437 c-10 -12 -10 -16 2 -20 8 -3 22 4 33 16 13 16 14 18 1 9
-12 -9 -17 -10 -20 -1 -2 7 -8 6 -16 -4z"/>
<path d="M3044 2394 c-18 -14 -18 -15 4 -4 12 6 22 13 22 15 0 8 -5 6 -26 -11z"/>
<path d="M2950 2303 c-36 -37 -54 -58 -40 -48 l25 20 -19 -22 c-10 -13 -23
-20 -28 -17 -13 8 -56 -34 -144 -142 -75 -92 -120 -174 -115 -208 1 -10 -2
-16 -7 -12 -13 8 -22 -41 -24 -133 l-2 -76 -6 75 -7 75 2 -90 c3 -111 5 -119
58 -230 42 -85 127 -205 205 -287 68 -72 26 -46 -73 44 -96 88 -96 87 21 -28
127 -125 187 -198 260 -316 24 -40 44 -68 44 -63 0 9 -12 29 -80 140 -14 22
-26 43 -26 48 -1 4 -3 10 -4 15 -1 4 -2 10 -1 15 1 4 -19 31 -43 61 -140 172
-246 351 -260 441 -21 132 -5 267 45 378 34 78 149 242 236 337 48 52 80 89
73 83 -17 -15 -34 -17 -25 -3 14 22 -3 7 -65 -57z m60 44 c0 -2 -19 -21 -42
-42 l-43 -40 40 43 c36 39 45 47 45 39z m-373 -559 c-3 -8 -6 -5 -6 6 -1 11 2
17 5 13 3 -3 4 -12 1 -19z m273 -653 c13 -14 21 -25 18 -25 -2 0 -15 11 -28
25 -13 14 -21 25 -18 25 2 0 15 -11 28 -25z"/>
<path d="M1655 2253 c6 -5 37 -30 70 -55 114 -86 191 -189 293 -393 113 -225
220 -359 407 -509 156 -126 283 -281 309 -376 4 -14 -6 -2 -21 25 -53 92 -116
178 -167 227 -28 26 -54 48 -58 48 -11 0 0 -41 17 -60 8 -9 15 -20 15 -25 0
-5 -10 2 -22 15 -13 14 -22 28 -20 32 1 5 -65 78 -148 162 -87 90 -171 188
-201 233 -28 43 -53 80 -55 83 -13 12 18 -53 48 -101 43 -72 52 -81 203 -239
72 -74 144 -156 160 -182 17 -27 36 -48 43 -48 6 0 37 -26 66 -57 60 -64 81
-114 111 -262 26 -124 16 -337 -24 -550 -37 -196 -38 -221 -11 -221 14 0 21 9
24 33 3 17 15 82 25 144 11 61 25 169 31 240 19 210 30 279 24 148 -5 -106
-15 -210 -30 -324 -9 -69 4 -62 45 24 21 44 36 63 45 59 9 -4 16 3 18 18 2 13
4 -11 4 -52 0 -71 37 -265 54 -283 4 -4 -1 29 -12 75 -12 54 -20 142 -23 253
-3 94 -7 201 -10 240 -3 51 -1 66 6 55 9 -12 10 -12 5 3 -3 10 -6 24 -6 30 0
7 -5 6 -11 -3 -8 -12 -9 -9 -5 12 4 17 2 28 -4 28 -6 0 -9 4 -5 10 10 16 -52
160 -117 269 -70 117 -137 190 -345 374 -185 164 -254 253 -360 464 -98 197
-179 308 -275 379 -60 44 -114 77 -93 57z m615 -858 c19 -19 32 -35 29 -35 -3
0 -20 16 -39 35 -19 19 -32 35 -29 35 3 0 20 -16 39 -35z m487 -577 c-3 -7 -5
-2 -5 12 0 14 2 19 5 13 2 -7 2 -19 0 -25z m10 -100 c-2 -13 -4 -3 -4 22 0 25
2 35 4 23 2 -13 2 -33 0 -45z"/>
<path d="M5015 2218 c-56 -25 -95 -49 -101 -62 -8 -17 8 -12 96 32 58 29 107
57 108 62 6 15 -7 12 -103 -32z"/>
<path d="M2379 2165 c-6 -40 -4 -53 7 -43 3 3 4 23 2 44 l-3 39 -6 -40z"/>
<path d="M0 2112 l0 -79 68 -65 c99 -96 136 -137 234 -259 67 -84 215 -287
225 -309 7 -15 44 -71 53 -80 3 -3 30 -34 60 -70 30 -36 63 -74 72 -84 81 -89
254 -383 245 -417 -2 -9 2 -27 9 -40 7 -13 13 -38 14 -55 0 -19 10 -42 25 -58
14 -15 25 -29 25 -31 0 -1 32 -51 71 -109 38 -58 81 -132 94 -163 27 -68 55
-195 55 -253 l0 -40 40 0 c34 0 40 3 46 26 4 15 4 62 1 106 -12 147 -89 336
-240 587 -54 89 -55 91 -19 54 21 -21 76 -64 122 -95 111 -74 212 -162 257
-224 47 -64 101 -183 148 -319 36 -106 57 -146 71 -133 3 4 -5 42 -20 85 -14
43 -48 157 -75 254 -28 97 -53 185 -57 195 -4 11 10 -6 29 -36 31 -48 175
-190 192 -190 3 0 -3 13 -14 29 -28 39 -28 60 0 35 29 -26 117 -170 124 -204
5 -23 11 -28 31 -25 20 2 34 -10 75 -66 44 -60 81 -90 95 -76 8 8 -64 93 -119
140 -33 28 -74 78 -101 123 -55 90 -61 122 -9 44 21 -30 80 -98 133 -150 52
-52 108 -111 123 -130 15 -19 25 -28 21 -20 -6 12 -4 13 7 3 7 -7 26 -13 41
-13 l28 0 -19 39 c-48 93 -195 252 -316 341 -58 43 -195 127 -266 163 -20 10
-65 48 -100 84 -35 36 -140 126 -234 201 -114 90 -229 195 -348 316 -97 100
-181 184 -185 189 -4 4 -46 44 -93 90 -79 75 -181 207 -161 207 4 0 24 -16 43
-36 38 -41 173 -144 187 -144 5 0 16 -10 25 -22 24 -38 130 -140 172 -167 22
-14 83 -56 135 -92 52 -36 102 -69 110 -74 30 -16 -5 12 -95 76 -86 61 -258
223 -359 339 -44 51 -46 52 -20 12 44 -69 21 -59 -47 20 -275 320 -453 514
-551 600 l-58 50 0 -80z m1133 -1291 c100 -74 126 -100 60 -60 -76 45 -119 78
-153 115 -19 21 -28 33 -20 27 8 -5 59 -43 113 -82z"/>
<path d="M3544 2108 c-86 -107 -89 -115 -21 -49 37 36 64 67 62 69 -2 3 0 13
6 23 17 33 3 20 -47 -43z"/>
<path d="M2616 2123 c-20 -46 -46 -141 -45 -168 0 -11 8 12 18 50 10 39 25 88
34 109 10 22 16 41 14 43 -2 2 -11 -14 -21 -34z"/>
<path d="M5026 2070 c-121 -68 -205 -130 -260 -191 -52 -58 -109 -167 -131
-249 -15 -57 -19 -206 -6 -250 7 -22 9 -18 19 28 7 29 12 61 12 70 0 36 53
160 95 224 24 36 64 83 89 104 68 56 184 132 233 150 l43 17 0 73 c0 41 -1 74
-2 74 -2 0 -43 -23 -92 -50z"/>
<path d="M2034 2057 c14 -23 54 -107 88 -187 67 -152 118 -247 118 -218 0 14
-64 158 -174 391 -15 31 -34 57 -42 57 -11 0 -9 -10 10 -43z"/>
<path d="M1902 1963 c18 -28 60 -105 93 -172 33 -66 63 -121 67 -121 11 0
-136 280 -165 313 -25 29 -24 27 5 -20z"/>
<path d="M885 1814 c224 -223 301 -283 552 -428 103 -60 211 -125 238 -144
l50 -34 -46 44 c-26 23 -109 81 -185 127 -333 202 -355 217 -544 395 -230 217
-264 237 -65 40z"/>
<path d="M2281 1912 c-1 -7 10 -61 24 -120 13 -59 23 -116 23 -127 -1 -12 20
-58 47 -103 80 -135 208 -285 355 -416 l45 -40 -50 54 c-104 113 -95 111 24
-5 147 -143 229 -244 301 -365 64 -110 84 -128 36 -33 -61 122 -153 248 -274
375 -64 67 -135 143 -157 168 -22 25 -44 44 -50 42 -5 -2 -7 0 -3 3 10 10 -11
47 -22 40 -4 -3 -32 28 -62 67 -29 40 -70 89 -90 110 -41 41 -92 133 -83 148
4 6 1 10 -5 10 -6 0 -9 4 -6 8 3 5 -6 46 -20 93 -28 98 -32 109 -33 91z"/>
<path d="M4071 1856 c-11 -35 -22 -81 -25 -102 -4 -22 4 -3 17 41 13 44 27 90
31 103 4 12 5 22 2 22 -3 0 -14 -29 -25 -64z"/>
<path d="M2563 1855 c0 -33 2 -45 4 -27 2 18 2 45 0 60 -2 15 -4 0 -4 -33z"/>
<path d="M4620 1843 c-64 -100 -73 -140 -78 -348 -5 -223 6 -284 69 -411 65
-128 175 -237 364 -360 52 -34 129 -74 141 -74 2 0 4 27 4 60 l0 60 -47 24
c-80 40 -225 140 -286 196 -107 98 -216 280 -203 338 5 19 4 23 -3 13 -14 -22
-26 67 -25 189 1 123 20 207 68 297 40 74 38 82 -4 16z"/>
<path d="M2591 1854 c0 -11 3 -14 6 -6 3 7 2 16 -1 19 -3 4 -6 -2 -5 -13z"/>
<path d="M0 1797 l0 -53 68 -49 c107 -78 207 -189 425 -469 167 -214 321 -416
359 -471 5 -7 11 -6 18 1 7 7 -32 68 -126 200 -183 254 -345 473 -417 564 -62
78 -306 330 -319 330 -5 0 -8 -24 -8 -53z"/>
<path d="M4944 1718 l-19 -23 23 19 c21 18 27 26 19 26 -2 0 -12 -10 -23 -22z"/>
<path d="M5044 1711 c-28 -16 -63 -46 -78 -66 -29 -37 -56 -110 -56 -149 0
-17 3 -16 16 9 34 65 130 140 172 133 14 -2 18 6 20 50 4 62 -2 64 -74 23z"/>
<path d="M4032 1685 c0 -16 2 -22 5 -12 2 9 2 23 0 30 -3 6 -5 -1 -5 -18z"/>
<path d="M880 1687 c0 -13 90 -127 101 -127 5 0 9 -6 9 -13 0 -25 151 -153
245 -207 52 -30 37 -16 -50 47 -69 50 -194 174 -268 263 -20 25 -37 41 -37 37z"/>
<path d="M4022 1610 c0 -19 2 -27 5 -17 2 9 2 25 0 35 -3 9 -5 1 -5 -18z"/>
<path d="M0 1610 c0 -9 44 -58 98 -111 132 -129 157 -144 48 -29 -50 52 -103
108 -118 125 -18 19 -28 24 -28 15z"/>
<path d="M0 1474 l0 -81 88 -79 c102 -92 125 -116 172 -174 19 -24 53 -65 75
-90 22 -25 49 -59 60 -75 11 -15 33 -41 48 -57 44 -44 121 -176 147 -248 30
-84 37 -91 46 -46 29 160 -145 442 -481 776 l-155 155 0 -81z"/>
<path d="M230 1465 c33 -47 60 -90 60 -95 0 -5 9 -14 20 -20 12 -6 17 -16 14
-22 -5 -7 -20 3 -41 28 -23 26 -30 31 -22 14 7 -13 33 -47 59 -75 65 -69 246
-298 291 -368 21 -32 41 -72 44 -89 5 -21 10 -27 15 -17 15 24 -60 147 -182
295 -64 78 -76 104 -26 58 24 -22 21 -16 -12 24 -24 28 -45 52 -48 52 -3 0 3
-9 13 -20 10 -11 16 -23 13 -26 -7 -6 -98 107 -98 121 0 6 16 -8 36 -30 32
-36 31 -34 -6 17 -23 32 -47 55 -53 51 -6 -3 -7 -1 -3 6 6 10 -116 181 -129
181 -3 0 22 -38 55 -85z"/>
<path d="M4012 1510 c0 -19 2 -27 5 -17 2 9 2 25 0 35 -3 9 -5 1 -5 -18z"/>
<path d="M966 1485 c31 -54 116 -146 214 -230 52 -45 136 -117 185 -161 50
-43 81 -67 70 -55 -11 13 -95 89 -187 168 -148 128 -218 198 -281 283 -18 25
-18 25 -1 -5z"/>
<path d="M4845 1487 c-12 -27 1 -120 23 -169 37 -84 108 -144 207 -174 l45
-13 0 59 c0 56 -2 60 -23 60 -59 0 -210 112 -191 142 4 6 3 8 -3 5 -10 -6 -38
48 -46 88 -4 19 -4 19 -12 2z"/>
<path d="M5031 1454 c0 -21 4 -48 9 -59 5 -12 6 1 3 35 -7 66 -13 79 -12 24z"/>
<path d="M3285 1363 c13 -54 48 -119 100 -188 101 -132 159 -201 346 -410 25
-29 112 -140 192 -247 80 -107 156 -204 169 -215 13 -10 37 -34 53 -53 l30
-34 -30 19 c-72 45 -252 200 -520 450 -77 71 -134 122 -126 113 7 -10 11 -24
8 -32 -4 -10 2 -16 21 -19 23 -3 21 -5 -16 -12 -38 -7 -41 -9 -28 -24 23 -25
62 -109 90 -191 14 -42 59 -143 100 -225 41 -83 84 -175 95 -206 28 -74 42
-92 70 -87 23 3 20 10 -69 183 -51 99 -90 178 -87 175 13 -12 107 -163 161
-257 32 -57 62 -103 67 -103 11 0 0 22 -46 95 -17 27 -46 77 -65 110 l-33 60
59 -55 c32 -31 96 -90 140 -133 l82 -77 78 0 79 1 -45 40 c-25 21 -111 87
-192 144 -174 124 -227 169 -290 243 -79 92 -153 252 -118 252 32 0 88 -37
143 -93 72 -73 232 -218 256 -231 35 -19 191 -156 291 -253 l104 -103 56 0 55
0 -50 42 c-144 119 -286 288 -392 465 -31 51 -57 93 -59 93 -9 0 67 -155 99
-201 10 -13 17 -27 17 -32 0 -18 -29 15 -71 81 -178 279 -230 348 -459 607
-148 168 -205 238 -236 290 -30 51 -39 57 -29 18z"/>
<path d="M4012 1315 c0 -16 2 -22 5 -12 2 9 2 23 0 30 -3 6 -5 -1 -5 -18z"/>
<path d="M1940 1326 c0 -2 8 -10 18 -17 15 -13 16 -12 3 4 -13 16 -21 21 -21
13z"/>
<path d="M1320 1288 c8 -8 33 -25 55 -37 34 -19 36 -20 16 -3 -34 27 -91 60
-71 40z"/>
<path d="M2090 1257 c0 -2 15 -16 33 -33 l32 -29 -29 33 c-28 30 -36 37 -36
29z"/>
<path d="M4021 1244 c0 -11 3 -14 6 -6 3 7 2 16 -1 19 -3 4 -6 -2 -5 -13z"/>
<path d="M4031 1209 c-2 -52 119 -315 241 -521 40 -68 55 -82 55 -53 0 8 -4
15 -9 15 -4 0 -8 4 -8 9 0 5 -22 45 -48 88 -102 165 -187 329 -208 402 -13 42
-23 69 -23 60z"/>
<path d="M0 1151 l0 -60 43 -21 c53 -27 159 -125 232 -215 61 -75 84 -112 96
-160 6 -19 7 -1 4 50 -6 95 -38 168 -112 257 -51 61 -156 149 -223 187 l-40
22 0 -60z"/>
<path d="M1450 1206 c0 -3 9 -10 20 -16 11 -6 20 -8 20 -6 0 3 -9 10 -20 16
-11 6 -20 8 -20 6z"/>
<path d="M4710 1196 c0 -2 8 -10 18 -17 15 -13 16 -12 3 4 -13 16 -21 21 -21
13z"/>
<path d="M2150 1186 c0 -2 8 -10 18 -17 15 -13 16 -12 3 4 -13 16 -21 21 -21
13z"/>
<path d="M1515 1165 c11 -9 29 -21 40 -26 l20 -10 -20 16 c-11 9 -29 21 -40
26 l-20 10 20 -16z"/>
<path d="M4695 1130 c10 -11 20 -20 23 -20 3 0 -3 9 -13 20 -10 11 -20 20 -23
20 -3 0 3 -9 13 -20z"/>
<path d="M195 1120 c10 -11 20 -20 23 -20 3 0 -3 9 -13 20 -10 11 -20 20 -23
20 -3 0 3 -9 13 -20z"/>
<path d="M1580 1127 c0 -2 19 -17 43 -32 23 -16 37 -22 30 -14 -12 15 -73 53
-73 46z"/>
<path d="M584 1035 c43 -49 83 -92 89 -94 16 -6 -61 84 -119 139 -32 31 -23
17 30 -45z"/>
<path d="M4835 1076 c50 -47 139 -98 233 -135 28 -11 52 -17 52 -12 0 4 -28
18 -62 31 -71 25 -180 86 -236 132 -20 16 -15 9 13 -16z"/>
<path d="M4755 1065 c42 -39 95 -79 95 -72 0 2 -30 27 -67 56 -38 29 -50 36
-28 16z"/>
<path d="M255 1060 c10 -11 20 -20 23 -20 3 0 -3 9 -13 20 -10 11 -20 20 -23
20 -3 0 3 -9 13 -20z"/>
<path d="M4357 1067 c-3 -8 15 -45 39 -83 24 -38 44 -66 44 -63 0 4 -17 41
-39 84 -23 46 -40 71 -44 62z"/>
<path d="M1670 1066 c0 -2 8 -10 18 -17 15 -13 16 -12 3 4 -13 16 -21 21 -21
13z"/>
<path d="M4063 1020 c14 -30 45 -98 70 -150 25 -52 50 -121 56 -154 6 -32 15
-64 19 -70 5 -6 19 -40 32 -76 34 -97 118 -265 175 -349 28 -41 82 -108 121
-148 l71 -73 59 0 59 0 -32 21 c-18 12 -33 23 -33 26 0 5 14 -3 52 -29 15 -10
44 -18 69 -18 l43 0 -94 62 c-59 39 -137 104 -205 173 -160 159 -236 283 -335
546 -50 133 -108 250 -137 279 -8 9 -5 -7 10 -40z m529 -914 c36 -33 48 -49
28 -35 -44 30 -151 138 -180 181 -12 18 3 6 33 -27 30 -33 84 -87 119 -119z"/>
<path d="M1200 1056 c0 -3 9 -10 20 -16 11 -6 20 -8 20 -6 0 3 -9 10 -20 16
-11 6 -20 8 -20 6z"/>
<path d="M1730 1015 c13 -14 26 -25 28 -25 3 0 -5 11 -18 25 -13 14 -26 25
-28 25 -3 0 5 -11 18 -25z"/>
<path d="M4311 1040 c-3 -22 88 -264 130 -346 121 -240 261 -365 587 -528 l92
-46 0 54 0 54 -144 77 c-262 139 -391 240 -482 376 -37 56 -114 207 -172 339
-6 14 -11 23 -11 20z"/>
<path d="M0 992 c0 -26 10 -62 25 -92 14 -28 25 -53 26 -57 0 -5 11 -30 24
-58 13 -27 26 -68 29 -90 l5 -40 -14 35 -15 35 6 -52 c5 -43 1 -61 -24 -115
-16 -35 -37 -69 -46 -77 -19 -16 -23 -91 -3 -90 15 1 55 17 44 18 -4 1 6 21
23 46 46 67 69 124 76 191 8 83 11 89 30 73 13 -11 14 -9 9 17 -15 68 -84 190
-139 244 l-56 54 0 -42z"/>
<path d="M290 1021 c0 -6 4 -13 10 -16 6 -3 7 1 4 9 -7 18 -14 21 -14 7z"/>
<path d="M1270 1016 c0 -2 29 -20 64 -40 101 -56 283 -189 376 -274 123 -113
132 -110 15 5 -92 90 -348 282 -368 275 -4 -1 -25 7 -47 18 -22 11 -40 18 -40
16z"/>
<path d="M1505 970 c27 -27 51 -50 54 -50 3 0 -17 23 -44 50 -27 28 -51 50
-54 50 -3 0 17 -22 44 -50z"/>
<path d="M80 996 c0 -2 8 -10 18 -17 15 -13 16 -12 3 4 -13 16 -21 21 -21 13z"/>
<path d="M1790 955 c13 -14 26 -25 28 -25 3 0 -5 11 -18 25 -13 14 -26 25 -28
25 -3 0 5 -11 18 -25z"/>
<path d="M2366 967 c3 -10 9 -15 12 -12 3 3 0 11 -7 18 -10 9 -11 8 -5 -6z"/>
<path d="M4950 935 c0 -7 61 -37 66 -33 2 3 -12 12 -31 21 -19 9 -35 15 -35
12z"/>
<path d="M678 921 c8 -4 13 -10 12 -12 -5 -10 36 -69 48 -69 8 0 1 17 -18 45
-17 25 -36 45 -43 45 -8 0 -8 -3 1 -9z"/>
<path d="M399 905 c5 -11 17 -29 26 -40 l16 -20 -10 20 c-5 11 -17 29 -26 40
l-16 20 10 -20z"/>
<path d="M0 892 c0 -5 10 -17 21 -28 22 -19 22 -19 10 3 -12 24 -31 39 -31 25z"/>
<path d="M4560 866 c19 -21 49 -47 65 -58 35 -25 29 -18 -45 48 -44 39 -48 41
-20 10z"/>
<path d="M3770 876 c0 -2 8 -10 18 -17 15 -13 16 -12 3 4 -13 16 -21 21 -21
13z"/>
<path d="M1870 846 c0 -2 8 -10 18 -17 15 -13 16 -12 3 4 -13 16 -21 21 -21
13z"/>
<path d="M400 805 c0 -8 4 -15 10 -15 5 0 7 7 4 15 -4 8 -8 15 -10 15 -2 0 -4
-7 -4 -15z"/>
<path d="M1965 729 c75 -93 82 -101 70 -79 -12 22 -116 149 -128 157 -6 3 20
-32 58 -78z"/>
<path d="M1 774 c0 -11 3 -14 6 -6 3 7 2 16 -1 19 -3 4 -6 -2 -5 -13z"/>
<path d="M4580 786 c0 -2 8 -10 18 -17 15 -13 16 -12 3 4 -13 16 -21 21 -21
13z"/>
<path d="M412 704 c-3 -82 -35 -205 -75 -284 -47 -94 -142 -185 -249 -240 -72
-37 -88 -49 -88 -68 0 -20 4 -22 23 -16 81 25 225 120 282 186 81 96 121 241
113 408 -4 74 -4 74 -6 14z"/>
<path d="M4641 724 c72 -80 270 -201 398 -245 64 -22 81 -24 81 -6 0 6 -28 20
-63 30 -80 23 -252 108 -297 148 l-35 30 32 -15 c18 -9 45 -16 60 -15 21 0 12
6 -37 24 -77 29 -73 28 -65 13 4 -7 -1 -4 -10 7 -9 11 -21 19 -26 18 -5 -2 -9
2 -9 7 0 6 -7 10 -15 10 -8 0 -15 5 -15 10 0 6 -5 10 -12 10 -6 0 -1 -12 13
-26z"/>
<path d="M890 732 c0 -5 14 -21 30 -37 32 -31 40 -20 14 20 -15 24 -44 34 -44
17z"/>
<path d="M443 640 c0 -30 2 -43 4 -27 2 15 2 39 0 55 -2 15 -4 2 -4 -28z"/>
<path d="M3170 687 c0 -15 65 -137 73 -137 4 0 -9 30 -29 68 -41 74 -44 78
-44 69z"/>
<path d="M201 664 c0 -11 3 -14 6 -6 3 7 2 16 -1 19 -3 4 -6 -2 -5 -13z"/>
<path d="M2075 563 c18 -38 51 -115 73 -173 45 -120 102 -244 109 -237 2 3 -3
20 -12 37 -9 18 -41 96 -72 173 -48 125 -116 267 -128 267 -2 0 11 -30 30 -67z"/>
<path d="M4938 623 c7 -3 16 -2 19 1 4 3 -2 6 -13 5 -11 0 -14 -3 -6 -6z"/>
<path d="M4988 613 c7 -3 16 -2 19 1 4 3 -2 6 -13 5 -11 0 -14 -3 -6 -6z"/>
<path d="M2886 550 c4 -36 13 -108 21 -160 7 -52 17 -123 21 -157 4 -34 13
-68 20 -75 9 -9 12 -9 12 3 0 12 2 12 11 -1 8 -11 9 -2 5 35 -3 28 -2 64 2 80
7 23 11 3 16 -85 4 -63 11 -133 16 -155 4 -24 5 4 2 67 -4 93 -3 108 11 108
34 0 323 -169 343 -201 3 -5 33 -9 67 -9 l61 0 -44 46 c-54 54 -143 121 -263
195 -121 74 -203 162 -262 281 l-46 93 7 -65z"/>
<path d="M4325 600 c3 -5 8 -10 11 -10 2 0 4 5 4 10 0 6 -5 10 -11 10 -5 0 -7
-4 -4 -10z"/>
<path d="M5068 603 c6 -2 18 -2 25 0 6 3 1 5 -13 5 -14 0 -19 -2 -12 -5z"/>
<path d="M422 508 c-15 -90 -63 -191 -122 -260 -38 -44 -150 -125 -252 -182
-61 -34 -67 -66 -12 -66 51 0 132 49 214 130 54 54 78 87 114 163 48 100 79
209 74 261 -2 21 -7 7 -16 -46z"/>
<path d="M766 453 c5 -64 3 -106 -6 -138 -21 -75 -109 -176 -251 -288 l-34
-27 41 0 c39 0 48 6 127 83 122 117 142 163 142 319 0 82 -4 121 -13 130 -11
11 -12 -4 -6 -79z"/>
<path d="M3267 490 c15 -28 45 -69 66 -93 l39 -42 -34 50 c-19 28 -45 69 -58
93 -13 23 -28 42 -32 42 -5 0 3 -23 19 -50z"/>
<path d="M913 445 c0 -22 2 -30 4 -17 2 12 2 30 0 40 -3 9 -5 -1 -4 -23z"/>
<path d="M4497 415 c72 -92 208 -206 343 -285 44 -26 265 -130 277 -130 2 0 3
10 3 23 0 20 -13 29 -93 60 -203 81 -341 165 -475 291 -55 52 -75 67 -55 41z"/>
<path d="M1036 334 c17 -61 26 -127 31 -211 l6 -123 52 0 52 0 -8 47 c-19 101
-106 326 -121 316 -7 -4 -9 -1 -6 8 3 8 -3 23 -13 33 -16 17 -16 9 7 -70z"/>
<path d="M4280 386 c0 -11 30 -66 36 -66 2 0 -3 15 -12 33 -19 36 -24 44 -24
33z"/>
<path d="M1006 290 c-4 -30 -9 -83 -11 -117 -2 -33 -9 -80 -15 -103 -12 -46
-10 -53 13 -44 25 9 42 180 28 274 l-7 45 -8 -55z"/>
<path d="M4335 280 c9 -16 18 -30 21 -30 2 0 -2 14 -11 30 -9 17 -18 30 -21
30 -2 0 2 -13 11 -30z"/>
<path d="M2070 296 c0 -2 8 -10 18 -17 15 -13 16 -12 3 4 -13 16 -21 21 -21
13z"/>
<path d="M2159 182 c33 -45 73 -105 88 -132 25 -45 43 -63 43 -43 0 20 -88
151 -136 201 l-55 57 60 -83z"/>
<path d="M966 182 c-10 -20 -40 -70 -67 -109 l-49 -73 44 0 c43 0 45 1 60 42
16 45 40 167 33 174 -2 2 -11 -13 -21 -34z"/>
<path d="M3294 208 c70 -48 148 -113 189 -157 59 -63 82 -68 32 -6 -40 48
-148 132 -205 159 -19 9 -27 11 -16 4z"/>
<path d="M2832 180 c0 -19 2 -27 5 -17 2 9 2 25 0 35 -3 9 -5 1 -5 -18z"/>
<path d="M3576 187 c3 -10 9 -15 12 -12 3 3 0 11 -7 18 -10 9 -11 8 -5 -6z"/>
<path d="M2732 150 c0 -19 2 -27 5 -17 2 9 2 25 0 35 -3 9 -5 1 -5 -18z"/>
<path d="M2922 150 c0 -14 2 -19 5 -12 2 6 2 18 0 25 -3 6 -5 1 -5 -13z"/>
<path d="M545 102 c-27 -26 -66 -60 -85 -75 -19 -15 -28 -27 -20 -27 8 1 49
34 90 75 83 83 94 102 15 27z"/>
<path d="M2721 84 c0 -11 3 -14 6 -6 3 7 2 16 -1 19 -3 4 -6 -2 -5 -13z"/>
<path d="M3638 50 c9 -27 20 -50 25 -50 10 0 1 32 -20 73 -21 41 -23 33 -5
-23z"/>
<path d="M2718 35 c-6 -30 -3 -43 8 -33 3 4 4 19 2 35 l-3 28 -7 -30z"/>
</g>
</svg>